<svg width="68" height="69" viewBox="0 0 68 69" fill="none" xmlns="http://www.w3.org/2000/svg">
<circle cx="34" cy="34.5" r="34" fill="#F8F8FA"/>
<g clip-path="url(#clip0_2066_9248)">
<path d="M22 35.8333C22 35.4797 22.1405 35.1406 22.3905 34.8905C22.6406 34.6405 22.9797 34.5 23.3333 34.5H28.6667C29.0203 34.5 29.3594 34.6405 29.6095 34.8905C29.8595 35.1406 30 35.4797 30 35.8333V43.8333C30 44.187 29.8595 44.5261 29.6095 44.7761C29.3594 45.0262 29.0203 45.1667 28.6667 45.1667H23.3333C22.9797 45.1667 22.6406 45.0262 22.3905 44.7761C22.1405 44.5261 22 44.187 22 43.8333V35.8333Z" stroke="#120A2C" stroke-width="2" stroke-linecap="round" stroke-linejoin="round"/>
<path d="M30 30.5C30 30.1463 30.1405 29.8072 30.3905 29.5572C30.6406 29.3071 30.9797 29.1666 31.3333 29.1666H36.6667C37.0203 29.1666 37.3594 29.3071 37.6095 29.5572C37.8595 29.8072 38 30.1463 38 30.5V43.8333C38 44.1869 37.8595 44.5261 37.6095 44.7761C37.3594 45.0262 37.0203 45.1666 36.6667 45.1666H31.3333C30.9797 45.1666 30.6406 45.0262 30.3905 44.7761C30.1405 44.5261 30 44.1869 30 43.8333V30.5Z" stroke="#120A2C" stroke-width="2" stroke-linecap="round" stroke-linejoin="round"/>
<path d="M38 25.1667C38 24.8131 38.1405 24.4739 38.3905 24.2239C38.6406 23.9739 38.9797 23.8334 39.3333 23.8334H44.6667C45.0203 23.8334 45.3594 23.9739 45.6095 24.2239C45.8595 24.4739 46 24.8131 46 25.1667V43.8334C46 44.187 45.8595 44.5261 45.6095 44.7762C45.3594 45.0262 45.0203 45.1667 44.6667 45.1667H39.3333C38.9797 45.1667 38.6406 45.0262 38.3905 44.7762C38.1405 44.5261 38 44.187 38 43.8334V25.1667Z" stroke="#120A2C" stroke-width="2" stroke-linecap="round" stroke-linejoin="round"/>
<path d="M23.3359 45.1666H42.0026" stroke="#120A2C" stroke-width="2" stroke-linecap="round" stroke-linejoin="round"/>
</g>
<defs>
<clipPath id="clip0_2066_9248">
<rect width="32" height="32" fill="white" transform="translate(18 18.5)"/>
</clipPath>
</defs>
</svg>
