<svg width="68" height="69" viewBox="0 0 68 69" fill="none" xmlns="http://www.w3.org/2000/svg">
<circle cx="34" cy="34.5" r="34" fill="#F8F8FA"/>
<g clip-path="url(#clip0_2066_9227)">
<path d="M36.6693 26.4999C36.6693 25.7927 36.3883 25.1144 35.8882 24.6143C35.3881 24.1142 34.7098 23.8333 34.0026 23.8333C33.2954 23.8333 32.6171 24.1142 32.117 24.6143C31.6169 25.1144 31.3359 25.7927 31.3359 26.4999C31.3359 27.2072 31.6169 27.8854 32.117 28.3855C32.6171 28.8856 33.2954 29.1666 34.0026 29.1666C34.7098 29.1666 35.3881 28.8856 35.8882 28.3855C36.3883 27.8854 36.6693 27.2072 36.6693 26.4999Z" stroke="#120A2C" stroke-width="2" stroke-linecap="round" stroke-linejoin="round"/>
<path d="M27.3333 37.1667C27.3333 36.4594 27.0524 35.7811 26.5523 35.281C26.0522 34.781 25.3739 34.5 24.6667 34.5C23.9594 34.5 23.2811 34.781 22.781 35.281C22.281 35.7811 22 36.4594 22 37.1667C22 37.8739 22.281 38.5522 22.781 39.0523C23.2811 39.5524 23.9594 39.8333 24.6667 39.8333C25.3739 39.8333 26.0522 39.5524 26.5523 39.0523C27.0524 38.5522 27.3333 37.8739 27.3333 37.1667Z" stroke="#120A2C" stroke-width="2" stroke-linecap="round" stroke-linejoin="round"/>
<path d="M45.9974 37.1667C45.9974 36.4594 45.7164 35.7811 45.2163 35.281C44.7162 34.781 44.038 34.5 43.3307 34.5C42.6235 34.5 41.9452 34.781 41.4451 35.281C40.945 35.7811 40.6641 36.4594 40.6641 37.1667C40.6641 37.8739 40.945 38.5522 41.4451 39.0523C41.9452 39.5524 42.6235 39.8333 43.3307 39.8333C44.038 39.8333 44.7162 39.5524 45.2163 39.0523C45.7164 38.5522 45.9974 37.8739 45.9974 37.1667Z" stroke="#120A2C" stroke-width="2" stroke-linecap="round" stroke-linejoin="round"/>
<path d="M36.6693 42.4999C36.6693 41.7927 36.3883 41.1144 35.8882 40.6143C35.3881 40.1142 34.7098 39.8333 34.0026 39.8333C33.2954 39.8333 32.6171 40.1142 32.117 40.6143C31.6169 41.1144 31.3359 41.7927 31.3359 42.4999C31.3359 43.2072 31.6169 43.8854 32.117 44.3855C32.6171 44.8856 33.2954 45.1666 34.0026 45.1666C34.7098 45.1666 35.3881 44.8856 35.8882 44.3855C36.3883 43.8854 36.6693 43.2072 36.6693 42.4999Z" stroke="#120A2C" stroke-width="2" stroke-linecap="round" stroke-linejoin="round"/>
<path d="M34 29.1667V39.8334" stroke="#120A2C" stroke-width="2" stroke-linecap="round" stroke-linejoin="round"/>
<path d="M26.4219 35.1614L32.2459 28.5054" stroke="#120A2C" stroke-width="2" stroke-linecap="round" stroke-linejoin="round"/>
<path d="M41.5791 35.1614L35.7578 28.5081" stroke="#120A2C" stroke-width="2" stroke-linecap="round" stroke-linejoin="round"/>
</g>
<defs>
<clipPath id="clip0_2066_9227">
<rect width="32" height="32" fill="white" transform="translate(18 18.5)"/>
</clipPath>
</defs>
</svg>
