<svg width="222" height="71" viewBox="0 0 222 71" fill="none" xmlns="http://www.w3.org/2000/svg">
<path d="M63.351 53.6362C63.1793 53.4416 63.0719 53.2686 62.986 53.074C62.9002 52.8794 62.986 52.6849 63.2007 52.447L65.2834 50.393C65.4766 50.22 65.6484 50.1768 65.8201 50.22C65.9919 50.2633 66.1851 50.3714 66.3569 50.5444C66.6575 50.8471 67.001 51.1714 67.3875 51.4957C67.774 51.82 68.1819 52.1011 68.6328 52.3605C69.0837 52.62 69.556 52.8362 70.0713 52.9876C70.5866 53.1389 71.1448 53.2254 71.7031 53.2254C72.3257 53.2254 72.8625 53.1389 73.3348 52.9659C73.8072 52.793 74.2151 52.5767 74.5587 52.2957C74.9022 52.0146 75.1598 51.6903 75.3316 51.3227C75.5034 50.9552 75.5892 50.5876 75.5892 50.1768C75.5892 49.6795 75.4389 49.2471 75.1384 48.9228C74.8378 48.5768 74.4728 48.2958 74.0434 48.0579C73.6139 47.8201 73.1416 47.6255 72.6263 47.4742C72.111 47.3228 71.6601 47.1931 71.2522 47.085C68.7616 46.3282 66.8507 45.4202 65.541 44.3175C64.2313 43.2364 63.5657 41.7878 63.5657 40.0365C63.5657 39.0852 63.759 38.1987 64.1669 37.4203C64.5749 36.642 65.1331 35.9501 65.8631 35.3663C66.5931 34.8042 67.4734 34.3501 68.504 34.0474C69.5345 33.7447 70.6725 33.5718 71.9178 33.5718C73.2704 33.5718 74.5801 33.8961 75.8469 34.5447C77.0922 35.1934 78.1872 35.9717 79.1104 36.9231C79.4754 37.3122 79.4754 37.723 79.0889 38.1338L77.3928 39.9716C77.1781 40.1662 76.9848 40.2095 76.8131 40.1446C76.6198 40.0797 76.4266 39.95 76.2334 39.777C75.9757 39.5608 75.6966 39.3446 75.3745 39.0852C75.0525 38.8257 74.7089 38.6095 74.3225 38.3717C73.936 38.1555 73.5281 37.9825 73.1201 37.8311C72.7122 37.6798 72.2613 37.6149 71.8104 37.6149C71.424 37.6149 71.016 37.6365 70.5866 37.7014C70.1572 37.7663 69.7707 37.8744 69.4487 38.069C69.1051 38.2419 68.826 38.5014 68.5898 38.8257C68.3537 39.15 68.2463 39.5824 68.2463 40.123C68.2463 40.5122 68.3537 40.8581 68.5684 41.1608C68.7831 41.4419 69.1051 41.7013 69.4916 41.9175C69.8995 42.1337 70.3719 42.3283 70.9087 42.5229C71.4454 42.7175 72.0681 42.8905 72.7122 43.0851C73.7642 43.3878 74.7519 43.7553 75.6751 44.1229C76.5984 44.5121 77.4142 44.9877 78.1013 45.5499C78.7883 46.112 79.3466 46.7823 79.7545 47.539C80.1625 48.3174 80.3772 49.2255 80.3772 50.3065C80.3772 51.3876 80.141 52.3822 79.6686 53.247C79.1963 54.1335 78.5522 54.8902 77.7578 55.5172C76.9633 56.1442 76.0401 56.6199 75.0095 56.9442C73.9575 57.2685 72.884 57.4415 71.7675 57.4415C70.1572 57.4415 68.6113 57.0956 67.1298 56.3821C65.6484 55.6686 64.4246 54.7605 63.351 53.6362Z" fill="#120A2C"/>
<path d="M82.7422 49.5501C82.7422 48.4474 82.9569 47.4096 83.3648 46.4367C83.7728 45.4637 84.3525 44.5989 85.0825 43.8854C85.8125 43.1503 86.6713 42.5881 87.6375 42.1773C88.6036 41.7665 89.6557 41.5503 90.7722 41.5503C91.8886 41.5503 92.9407 41.7665 93.9069 42.1773C94.873 42.5881 95.7319 43.1719 96.4404 43.8854C97.1704 44.6205 97.7286 45.4637 98.158 46.4367C98.5874 47.4096 98.7807 48.4474 98.7807 49.5501C98.7807 50.6528 98.566 51.6906 98.158 52.6635C97.7286 53.6365 97.1704 54.4797 96.4404 55.1932C95.7104 55.9067 94.873 56.4689 93.9069 56.9013C92.9407 57.3337 91.8886 57.5283 90.7722 57.5283C89.6557 57.5283 88.6251 57.3121 87.6375 56.9013C86.6498 56.4905 85.8125 55.9283 85.0825 55.1932C84.3525 54.4797 83.7728 53.6365 83.3648 52.6635C82.9569 51.6906 82.7422 50.6528 82.7422 49.5501ZM86.8645 49.5717C86.8645 50.1339 86.9504 50.6528 87.1651 51.1501C87.3584 51.6474 87.6375 52.0798 87.981 52.4473C88.3245 52.8149 88.7539 53.1176 89.2263 53.3122C89.6986 53.5284 90.2139 53.6149 90.7722 53.6149C91.3304 53.6149 91.8457 53.5068 92.3181 53.3122C92.7904 53.096 93.1983 52.8149 93.5633 52.4473C93.9069 52.0798 94.186 51.6474 94.4007 51.1501C94.6154 50.6528 94.7013 50.1339 94.7013 49.5717C94.7013 49.0096 94.5939 48.4907 94.4007 47.9934C94.186 47.4961 93.9069 47.0637 93.5633 46.6961C93.2198 46.3286 92.7904 46.0259 92.3181 45.8097C91.8457 45.5934 91.3304 45.4853 90.7722 45.4853C90.2139 45.4853 89.6986 45.5934 89.2263 45.8097C88.7539 46.0259 88.346 46.3286 87.981 46.6961C87.6375 47.0637 87.3584 47.4961 87.1651 47.9934C86.9504 48.4907 86.8645 49.0096 86.8645 49.5717Z" fill="#120A2C"/>
<path d="M114.408 57.1599C114.108 57.1599 113.871 57.1167 113.7 57.0302C113.528 56.9437 113.421 56.814 113.335 56.641C113.249 56.4681 113.184 56.2735 113.141 56.0573C113.098 55.8194 113.034 55.5816 112.97 55.3005C112.497 55.8411 111.81 56.3167 110.93 56.7275C110.05 57.1383 109.105 57.3545 108.096 57.3545C107.151 57.3545 106.314 57.2032 105.562 56.9005C104.832 56.5978 104.21 56.1654 103.716 55.6248C103.222 55.0843 102.857 54.4141 102.599 53.6789C102.342 52.9222 102.234 52.1006 102.234 51.2141V42.7819C102.234 42.5008 102.32 42.263 102.492 42.09C102.664 41.9171 102.878 41.8306 103.136 41.8306H105.67C105.992 41.8306 106.228 41.9171 106.357 42.0684C106.486 42.2197 106.55 42.4576 106.55 42.7387V50.479C106.55 51.3222 106.786 52.0141 107.28 52.5114C107.774 53.0087 108.418 53.2681 109.212 53.2681C109.534 53.2681 109.921 53.2033 110.329 53.0736C110.737 52.9438 111.123 52.7492 111.467 52.533C111.81 52.2952 112.111 52.0141 112.368 51.6898C112.626 51.3655 112.733 50.9979 112.733 50.5871V42.717C112.733 42.1333 113.034 41.8522 113.635 41.8522H116.147C116.426 41.8522 116.663 41.9387 116.813 42.1116C116.963 42.2846 117.049 42.4792 117.049 42.7387V56.2519C117.049 56.8789 116.727 57.1816 116.083 57.1816H114.408V57.1599Z" fill="#120A2C"/>
<path d="M124.459 42.7152C124.48 42.8233 124.523 43.0179 124.609 43.3206C124.695 43.6233 124.738 43.8179 124.759 43.926C124.952 43.6665 125.167 43.4071 125.425 43.1476C125.682 42.8665 125.983 42.6287 126.305 42.4125C126.627 42.1963 126.992 42.0233 127.379 41.872C127.765 41.7206 128.173 41.6558 128.624 41.6558C128.731 41.6558 128.817 41.6558 128.924 41.6558C129.032 41.6558 129.118 41.6558 129.225 41.6774C129.504 41.699 129.848 41.7855 130.213 41.9152C130.578 42.0449 130.943 42.1963 131.265 42.3909C131.587 42.5638 131.866 42.7584 132.102 42.953C132.338 43.1476 132.446 43.3206 132.446 43.4936C132.446 43.6233 132.403 43.753 132.295 43.926L131.05 45.9584C130.857 46.2394 130.642 46.3908 130.406 46.3908C130.32 46.3908 130.191 46.3475 130.041 46.2827C129.869 46.2178 129.697 46.1313 129.504 46.0232C129.225 45.807 128.967 45.6773 128.753 45.5908C128.538 45.5043 128.28 45.4611 128.001 45.4611C127.55 45.4611 127.142 45.5476 126.777 45.7205C126.412 45.8935 126.112 46.1313 125.854 46.4124C125.597 46.6935 125.403 47.0394 125.274 47.407C125.146 47.7745 125.081 48.1205 125.081 48.488V56.3797C125.081 56.8987 124.802 57.1581 124.244 57.1581H121.667C121.131 57.1581 120.852 56.8987 120.852 56.3797V42.7152C120.852 42.4557 120.937 42.2395 121.109 42.1098C121.281 41.9801 121.453 41.9152 121.667 41.9152H123.643C123.9 41.9152 124.072 42.0017 124.18 42.1747C124.287 42.3476 124.394 42.499 124.459 42.7152Z" fill="#120A2C"/>
<path d="M141.686 53.6365C142.309 53.6149 142.846 53.5284 143.297 53.3554C143.748 53.1825 144.22 52.9879 144.714 52.7717C144.928 52.6635 145.057 52.6203 145.143 52.6203C145.293 52.6203 145.444 52.7284 145.615 52.9662L146.947 54.8905C147.033 55.0635 147.075 55.1716 147.075 55.2365C147.075 55.4311 147.011 55.5608 146.882 55.6689C146.753 55.777 146.646 55.8635 146.539 55.95C145.852 56.404 145.122 56.7716 144.306 57.0743C143.49 57.3769 142.653 57.5283 141.772 57.5283C140.677 57.5283 139.647 57.3121 138.68 56.9013C137.714 56.4905 136.877 55.9283 136.147 55.1932C135.417 54.4797 134.859 53.6365 134.451 52.6635C134.043 51.6906 133.828 50.6528 133.828 49.5501C133.828 48.4474 134.043 47.4096 134.451 46.4367C134.859 45.4637 135.438 44.5989 136.147 43.8854C136.877 43.1503 137.714 42.5881 138.68 42.1773C139.647 41.7665 140.677 41.5503 141.772 41.5503C142.61 41.5503 143.404 41.68 144.155 41.9611C144.907 42.2422 145.637 42.6097 146.388 43.0854H146.367C146.539 43.1935 146.668 43.3016 146.775 43.4313C146.882 43.5611 146.925 43.6908 146.925 43.8637C146.925 43.907 146.925 43.9719 146.904 44.0367C146.904 44.1016 146.861 44.1664 146.818 44.2097L145.615 46.3069C145.573 46.3934 145.508 46.4583 145.422 46.5231C145.336 46.588 145.229 46.6096 145.122 46.6096C145.036 46.6096 144.864 46.5448 144.628 46.3934C144.284 46.1123 143.833 45.8745 143.318 45.6799C142.803 45.507 142.288 45.4205 141.794 45.4205C141.214 45.4205 140.677 45.5286 140.183 45.7664C139.69 46.0042 139.26 46.3069 138.895 46.6961C138.53 47.0853 138.251 47.5393 138.036 48.0366C137.822 48.5555 137.736 49.0961 137.736 49.6582C137.736 50.8474 138.122 51.8203 138.874 52.5554C139.625 53.2473 140.57 53.6365 141.686 53.6365Z" fill="#120A2C"/>
<path d="M158.13 53.8065C158.581 53.8281 159.032 53.7632 159.461 53.6119C159.89 53.4605 160.32 53.2875 160.728 53.0497C160.899 52.9632 161.05 52.8768 161.2 52.7686C161.35 52.6605 161.479 52.6173 161.608 52.6173C161.801 52.6173 161.952 52.7038 162.08 52.8984L163.218 54.7362C163.326 54.9091 163.369 55.0389 163.369 55.147C163.369 55.3199 163.326 55.4497 163.218 55.5578C163.111 55.6659 163.004 55.774 162.875 55.8821C162.209 56.3794 161.501 56.7686 160.728 57.0712C159.955 57.3523 159.117 57.5037 158.237 57.5037C157.164 57.5037 156.154 57.2875 155.188 56.8767C154.222 56.4659 153.385 55.9037 152.676 55.1686C151.968 54.4335 151.388 53.6119 150.98 52.6173C150.551 51.6444 150.336 50.6065 150.336 49.5039C150.336 48.4228 150.551 47.4066 150.959 46.4337C151.367 45.4607 151.925 44.6175 152.633 43.8824C153.342 43.1472 154.158 42.5635 155.081 42.1311C156.004 41.6986 156.992 41.4824 158.044 41.4824C159.031 41.4824 159.976 41.677 160.857 42.0446C161.737 42.4121 162.531 42.931 163.197 43.5797C163.862 44.2283 164.399 44.985 164.786 45.8499C165.172 46.7147 165.365 47.6228 165.365 48.6174C165.365 49.439 165.301 50.0228 165.172 50.3903C165.043 50.7579 164.743 50.9308 164.292 50.9308H154.652C154.694 51.3849 154.823 51.7957 155.059 52.1416C155.296 52.4876 155.575 52.7903 155.897 53.0497C156.219 53.3092 156.605 53.4821 156.992 53.6119C157.357 53.7416 157.743 53.8065 158.13 53.8065ZM154.63 47.9039H161.286C161.243 47.1255 160.899 46.4553 160.277 45.8931C159.654 45.3526 158.86 45.0715 157.937 45.0715C157.572 45.0715 157.185 45.1364 156.82 45.2877C156.455 45.4391 156.112 45.6337 155.789 45.8931C155.489 46.1526 155.231 46.4553 155.017 46.8012C154.823 47.1472 154.694 47.5147 154.63 47.9039Z" fill="#120A2C"/>
<path d="M169.766 56.3808V34.7813C169.766 34.2624 170.002 34.0029 170.474 34.0029H173.201C173.716 34.0029 173.974 34.2624 173.974 34.7813V43.5162C174.403 42.9541 174.94 42.5 175.563 42.1541C176.185 41.8082 176.98 41.6352 177.903 41.6352C178.955 41.6352 179.921 41.8514 180.823 42.2622C181.703 42.673 182.476 43.2352 183.099 43.9703C183.721 44.6838 184.215 45.527 184.58 46.4783C184.945 47.4297 185.117 48.4675 185.117 49.5702C185.117 50.6512 184.924 51.6674 184.559 52.6404C184.194 53.6133 183.679 54.4349 183.034 55.1484C182.39 55.8619 181.639 56.424 180.759 56.8348C179.878 57.2457 178.934 57.4619 177.903 57.4619C176.915 57.4619 176.078 57.2889 175.434 56.943C174.768 56.597 174.189 56.0565 173.673 55.2997C173.63 55.5376 173.587 55.7322 173.544 55.9051C173.502 56.0781 173.459 56.2727 173.416 56.4457C173.308 56.8132 173.094 57.0294 172.729 57.0727C172.385 57.1159 172.02 57.1376 171.677 57.1376H170.496C170.002 57.1159 169.766 56.8565 169.766 56.3808ZM173.566 49.635C173.566 50.1972 173.673 50.7161 173.866 51.235C174.06 51.7323 174.339 52.1647 174.682 52.5322C175.026 52.8998 175.412 53.1809 175.885 53.3971C176.336 53.6133 176.808 53.7214 177.302 53.7214C177.817 53.7214 178.289 53.6133 178.74 53.3971C179.191 53.1809 179.578 52.8782 179.9 52.5106C180.222 52.1431 180.501 51.689 180.694 51.1917C180.887 50.6945 180.995 50.1539 180.995 49.5918C180.995 49.0296 180.909 48.4891 180.716 47.9918C180.522 47.4729 180.286 47.0405 179.964 46.6729C179.642 46.3054 179.256 46.0027 178.826 45.7865C178.375 45.5702 177.903 45.4621 177.409 45.4621C176.894 45.4621 176.4 45.5702 175.949 45.7865C175.498 46.0027 175.09 46.3054 174.747 46.6729C174.403 47.0405 174.124 47.4945 173.909 47.9918C173.695 48.5107 173.609 49.0296 173.609 49.5918V49.635H173.566Z" fill="#120A2C"/>
<path d="M199.262 56.3165C199.219 56.1003 199.198 55.9489 199.176 55.7976C199.155 55.6679 199.133 55.4949 199.09 55.2787C198.897 55.5381 198.704 55.8192 198.468 56.1003C198.231 56.3814 197.974 56.5976 197.652 56.7922C197.351 56.9867 196.986 57.1597 196.578 57.2678C196.17 57.3759 195.676 57.4624 195.097 57.4624H195.032C193.937 57.4624 192.928 57.2678 192.005 56.857C191.082 56.4462 190.287 55.8841 189.643 55.1706C188.978 54.4571 188.462 53.6138 188.097 52.6625C187.732 51.7112 187.539 50.6734 187.539 49.5491C187.539 48.4248 187.711 47.387 188.076 46.414C188.441 45.4411 188.956 44.6195 189.6 43.906C190.266 43.1925 191.06 42.6519 191.962 42.2411C192.885 41.8303 193.894 41.6357 195.011 41.6357C196.106 41.6357 196.965 41.852 197.566 42.2844C198.167 42.7168 198.725 43.2357 199.198 43.8411L199.498 42.6519C199.584 42.306 199.67 42.0682 199.777 41.9601C199.885 41.852 200.078 41.7871 200.357 41.7871L202.096 41.852C202.332 41.852 202.525 41.9384 202.719 42.0898C202.912 42.2411 202.998 42.4573 202.998 42.6952V56.3814C202.998 56.6408 202.912 56.8138 202.719 56.9651C202.525 57.0949 202.332 57.1597 202.096 57.1597H200.121C199.82 57.1597 199.605 57.0732 199.477 56.9219C199.391 56.7705 199.305 56.5543 199.262 56.3165ZM191.554 49.5707C191.554 50.1545 191.64 50.695 191.812 51.1923C191.983 51.6896 192.241 52.122 192.563 52.5112C192.885 52.8787 193.293 53.1814 193.744 53.376C194.195 53.5922 194.71 53.6787 195.268 53.6787C196.428 53.6787 197.33 53.2895 198.017 52.5112C198.704 51.7328 199.026 50.7599 199.026 49.5923C199.026 49.0302 198.94 48.4896 198.768 47.9924C198.596 47.4734 198.36 47.041 198.017 46.6518C197.695 46.2627 197.287 45.96 196.836 45.7438C196.385 45.5275 195.848 45.4194 195.247 45.4194C194.689 45.4194 194.173 45.5275 193.723 45.7438C193.25 45.96 192.864 46.2627 192.542 46.6518C192.22 47.041 191.983 47.4734 191.79 47.9707C191.64 48.468 191.554 49.0086 191.554 49.5707Z" fill="#120A2C"/>
<path d="M221.106 45.8753C220.719 45.0104 220.204 44.2537 219.517 43.6051C218.852 42.9564 218.057 42.4591 217.177 42.07C216.297 41.7024 215.352 41.5078 214.364 41.5078C213.312 41.5078 212.324 41.724 211.401 42.1564C210.478 42.5889 209.662 43.1726 208.954 43.9078C208.245 44.6429 207.687 45.5077 207.279 46.459C206.871 47.4104 206.656 48.4482 206.656 49.5293C206.656 50.6319 206.871 51.6697 207.3 52.6427C207.73 53.6156 208.288 54.4589 208.997 55.194C209.705 55.9291 210.542 56.4696 211.509 56.9021C212.475 57.3345 213.484 57.5291 214.557 57.5291C215.438 57.5291 216.275 57.3777 217.048 57.0966C217.821 56.8156 218.529 56.4048 219.195 55.9075C219.324 55.7994 219.431 55.6913 219.539 55.5832C219.646 55.4751 219.689 55.3237 219.689 55.1724C219.689 55.0643 219.646 54.9345 219.539 54.7616L218.401 52.9238C218.272 52.7292 218.122 52.6427 217.928 52.6427C217.799 52.6427 217.671 52.6859 217.52 52.794C217.37 52.9021 217.22 52.9886 217.048 53.0751C216.64 53.3129 216.211 53.4859 215.781 53.6373C215.352 53.7886 214.901 53.8535 214.45 53.8319C214.085 53.8319 213.699 53.767 213.291 53.6373C212.883 53.5075 212.518 53.3346 212.196 53.0751C211.874 52.8157 211.594 52.5346 211.358 52.167C211.122 51.8211 210.993 51.4103 210.95 50.9562H220.591C221.042 50.9562 221.342 50.7833 221.471 50.4157C221.6 50.0482 221.664 49.4644 221.664 48.6428C221.686 47.6482 221.492 46.7401 221.106 45.8753ZM210.95 47.9077C211.015 47.5185 211.144 47.1509 211.358 46.805C211.573 46.459 211.831 46.1564 212.131 45.8969C212.432 45.6374 212.775 45.4429 213.162 45.2915C213.527 45.1402 213.913 45.0753 214.278 45.0753C215.202 45.0753 215.996 45.3564 216.619 45.8969C217.241 46.4591 217.585 47.1293 217.628 47.9077H210.95Z" fill="#120A2C"/>
<path d="M217.946 34.9108L216.528 38.1765C216.356 38.6091 216.099 38.8254 215.712 38.8254H213.478C213.264 38.8254 213.135 38.8037 213.07 38.7389C213.006 38.674 212.984 38.5658 212.984 38.4361C212.984 38.3496 213.006 38.2631 213.027 38.1765C213.049 38.09 213.092 37.9819 213.135 37.8305L214.488 34.6513C214.724 34.2187 215.003 34.0024 215.325 34.0024H217.645C217.924 34.0024 218.074 34.1106 218.074 34.3052C218.096 34.4782 218.031 34.6729 217.946 34.9108Z" fill="url(#paint0_linear_1987_10084)"/>
<path d="M34.5746 22.7696C31.4613 22.3588 28.3696 22.6615 25.471 23.548L27.661 6.48891L24.4619 6.07811C18.7293 5.32137 13.0181 6.87809 8.4449 10.4456C3.87167 14.0131 0.930209 19.1589 0.17874 24.9534C-1.34567 36.8882 7.04931 47.8718 18.9225 49.4069C19.8672 49.5366 20.8119 49.5798 21.7352 49.5798C23.8822 49.5798 26.0078 49.2339 28.026 48.6069L25.836 65.666L29.0352 66.0767C29.9799 66.2065 30.9246 66.2497 31.8478 66.2497C36.6143 66.2497 41.2304 64.6714 45.0522 61.6877C49.6469 58.1202 52.5669 52.9743 53.3183 47.1799C54.8427 35.2666 46.4263 24.3047 34.5746 22.7696ZM6.55549 25.775C7.07078 21.7102 9.13195 18.0778 12.374 15.5698C14.7358 13.732 17.5055 12.6726 20.404 12.4131L18.5146 27.1587C14.7787 30.0776 12.1593 34.0559 10.9355 38.5747C7.69343 35.3315 5.93284 30.683 6.55549 25.775ZM19.7384 42.9638C18.6863 42.834 17.6772 42.5962 16.7111 42.2503C17.2693 38.272 19.309 34.7261 22.4866 32.2613C25.7072 29.7532 29.7007 28.6722 33.7587 29.1911C34.8107 29.3208 35.8198 29.5587 36.786 29.9046C36.2278 33.8829 34.1881 37.4287 31.0104 39.8936C27.7684 42.4016 23.7749 43.5043 19.7384 42.9638ZM46.9201 46.3799C46.4048 50.4447 44.3437 54.077 41.1016 56.5851C38.7398 58.4229 35.9701 59.4823 33.0716 59.7418L34.961 44.9961C38.6969 42.0773 41.3163 38.099 42.5401 33.5802C45.7822 36.8234 47.5428 41.4935 46.9201 46.3799Z" fill="url(#paint1_linear_1987_10084)"/>
<path d="M11.1165 70.5005C10.6871 70.5005 10.2577 70.4789 9.82825 70.414C4.3962 69.7005 0.531504 64.6844 1.24003 59.2143C1.94856 53.7441 6.92973 49.8523 12.3618 50.5658C17.7938 51.2793 21.6585 56.2954 20.95 61.7656C20.6065 64.425 19.2753 66.7817 17.1712 68.4032C15.4106 69.787 13.3065 70.5005 11.1165 70.5005ZM11.095 56.9657C9.3559 56.9657 7.85296 58.2629 7.61679 60.0359C7.38061 61.9601 8.73325 63.7331 10.6441 63.9709C11.5674 64.1006 12.4906 63.8412 13.2206 63.2574C13.9506 62.6736 14.4444 61.852 14.5518 60.9223C14.7879 58.9981 13.4353 57.2251 11.5244 56.9873C11.3956 56.9657 11.2453 56.9657 11.095 56.9657Z" fill="#BC56FC"/>
<path d="M42.593 20.5131C42.1636 20.5131 41.7342 20.4914 41.3048 20.4266C35.8728 19.7131 32.0081 14.697 32.7166 9.22683C33.0601 6.56743 34.3913 4.21073 36.4954 2.58915C38.5995 0.945943 41.1974 0.254066 43.8383 0.578383C49.2704 1.29188 53.1351 6.30798 52.4265 11.7781C51.8039 16.8158 47.5098 20.5131 42.593 20.5131ZM42.5716 6.97824C41.7986 6.97824 41.0686 7.23769 40.446 7.71335C39.716 8.29712 39.2222 9.11872 39.1148 10.0484C38.8786 11.9727 40.2313 13.7456 42.1422 13.9835C44.0316 14.2429 45.8136 12.8592 46.0713 10.9349C46.3074 9.01062 44.9548 7.23769 43.0439 6.99986C42.8722 6.97824 42.7219 6.97824 42.5716 6.97824Z" fill="#BC56FC"/>
<defs>
<linearGradient id="paint0_linear_1987_10084" x1="212.977" y1="36.4193" x2="218.09" y2="36.4193" gradientUnits="userSpaceOnUse">
<stop stop-color="#F1A0AD"/>
<stop offset="0.1538" stop-color="#E087C7"/>
<stop offset="0.3418" stop-color="#D070E0"/>
<stop offset="0.5394" stop-color="#C560F1"/>
<stop offset="0.7508" stop-color="#BE56FC"/>
<stop offset="1" stop-color="#BC53FF"/>
</linearGradient>
<linearGradient id="paint1_linear_1987_10084" x1="15.7399" y1="20.6296" x2="47.2015" y2="64.213" gradientUnits="userSpaceOnUse">
<stop stop-color="#F1A0AD"/>
<stop offset="0.1538" stop-color="#E087C7"/>
<stop offset="0.3418" stop-color="#D070E0"/>
<stop offset="0.5394" stop-color="#C560F1"/>
<stop offset="0.7508" stop-color="#BE56FC"/>
<stop offset="1" stop-color="#BC53FF"/>
</linearGradient>
</defs>
</svg>
