<svg width="21" height="21" viewBox="0 0 21 21" fill="none" xmlns="http://www.w3.org/2000/svg">
<circle cx="10.0955" cy="10.1133" r="9.3299" fill="white"/>
<path fill-rule="evenodd" clip-rule="evenodd" d="M10.0938 0.113201C15.6162 0.113201 20.0938 4.59074 20.0938 10.1132C20.0938 15.6357 15.6162 20.1132 10.0938 20.1132C4.57129 20.1132 0.09375 15.6357 0.09375 10.1132C0.09375 4.59074 4.57129 0.113201 10.0938 0.113201ZM6.51953 9.35637C7.26823 9.78768 7.75488 10.1458 8.33594 10.7854C9.83984 8.36353 11.474 7.02238 13.5964 5.11646L13.8047 5.0367H16.1289C13.0137 8.49699 10.5967 11.3502 8.43359 15.5234C7.30729 13.1161 6.30306 11.4543 4.05859 9.91301L6.51953 9.35637Z" fill="url(#paint0_linear_2066_9619)"/>
<defs>
<linearGradient id="paint0_linear_2066_9619" x1="0.09375" y1="10.1132" x2="20.1101" y2="10.2718" gradientUnits="userSpaceOnUse">
<stop stop-color="#F00CB1"/>
<stop offset="1" stop-color="#FE6403"/>
</linearGradient>
</defs>
</svg>
